<svg width="21" height="20" viewBox="0 0 21 20" fill="none" xmlns="http://www.w3.org/2000/svg">
<g clip-path="url(#clip0_1140_432)">
<path d="M12.9688 10.9375C12.9688 10.291 12.7119 9.67105 12.2548 9.21393C11.7977 8.75681 11.1777 8.5 10.5312 8.5M10.5312 8.5C9.88478 8.5 9.2648 8.75681 8.80768 9.21393C8.35056 9.67105 8.09375 10.291 8.09375 10.9375M10.5312 8.5C11.4287 8.5 12.1562 7.77246 12.1562 6.875C12.1562 5.97754 11.4287 5.25 10.5312 5.25C9.63379 5.25 8.90625 5.97754 8.90625 6.875C8.90625 7.77246 9.63379 8.5 10.5312 8.5ZM4.03125 16.2188V4.03125C4.03125 3.49253 4.24526 2.97587 4.62619 2.59494C5.00712 2.21401 5.52378 2 6.0625 2H16.2188C16.4342 2 16.6409 2.0856 16.7933 2.23798C16.9456 2.39035 17.0312 2.59701 17.0312 2.8125V17.4375C17.0312 17.653 16.9456 17.8597 16.7933 18.012C16.6409 18.1644 16.4342 18.25 16.2188 18.25H6.0625C5.52378 18.25 5.00712 18.036 4.62619 17.6551C4.24526 17.2741 4.03125 16.7575 4.03125 16.2188ZM4.03125 16.2188C4.03125 15.68 4.24526 15.1634 4.62619 14.7824C5.00712 14.4015 5.52378 14.1875 6.0625 14.1875H17.0312" stroke="white" stroke-width="1.625" stroke-linecap="round" stroke-linejoin="round"/>
</g>
<defs>
<clipPath id="clip0_1140_432">
<rect width="19.5" height="19.5" fill="white" transform="translate(0.78125 0.375)"/>
</clipPath>
</defs>
</svg>
