<svg width="21" height="20" viewBox="0 0 21 20" fill="none" xmlns="http://www.w3.org/2000/svg">
<path d="M10.5312 10.5625V1.625L17.0312 4.875L10.5312 8.125M17.487 8.30538C17.9194 9.63799 17.9599 11.0668 17.6036 12.4217C17.2473 13.7766 16.5093 15.0007 15.4774 15.9483C14.4454 16.8959 13.163 17.5271 11.7827 17.7668C10.4023 18.0065 8.98219 17.8447 7.69119 17.3005C6.40019 16.7563 5.29269 15.8527 4.50044 14.6972C3.7082 13.5417 3.26456 12.183 3.22232 10.7826C3.18008 9.38226 3.541 7.99924 4.26215 6.7981C4.9833 5.59695 6.03432 4.62825 7.29017 4.00725M7.28286 8.12256C6.87572 8.66452 6.61066 9.29974 6.51183 9.97034C6.413 10.6409 6.48355 11.3256 6.71704 11.962C6.95052 12.5984 7.33954 13.1662 7.84863 13.6137C8.35772 14.0613 8.97071 14.3743 9.63174 14.5244C10.2928 14.6744 10.9808 14.6567 11.6333 14.4727C12.2857 14.2888 12.8817 13.9445 13.367 13.4713C13.8524 12.9981 14.2116 12.411 14.4119 11.7634C14.6123 11.1158 14.6474 10.4284 14.5141 9.76381" stroke="white" stroke-width="1.625" stroke-linecap="round" stroke-linejoin="round"/>
</svg>
