<svg width="21" height="20" viewBox="0 0 21 20" fill="none" xmlns="http://www.w3.org/2000/svg">
<path d="M8.09375 2.9375H4.03125C3.58252 2.9375 3.21875 3.30127 3.21875 3.75V9.4375C3.21875 9.88623 3.58252 10.25 4.03125 10.25H8.09375C8.54248 10.25 8.90625 9.88623 8.90625 9.4375V3.75C8.90625 3.30127 8.54248 2.9375 8.09375 2.9375Z" stroke="white" stroke-width="1.625" stroke-linecap="round" stroke-linejoin="round"/>
<path d="M17.0312 2.9375H12.9688C12.52 2.9375 12.1562 3.30127 12.1562 3.75V6.1875C12.1562 6.63623 12.52 7 12.9688 7H17.0312C17.48 7 17.8438 6.63623 17.8438 6.1875V3.75C17.8438 3.30127 17.48 2.9375 17.0312 2.9375Z" stroke="white" stroke-width="1.625" stroke-linecap="round" stroke-linejoin="round"/>
<path d="M17.0312 10.25H12.9688C12.52 10.25 12.1562 10.6138 12.1562 11.0625V16.75C12.1562 17.1987 12.52 17.5625 12.9688 17.5625H17.0312C17.48 17.5625 17.8438 17.1987 17.8438 16.75V11.0625C17.8438 10.6138 17.48 10.25 17.0312 10.25Z" stroke="white" stroke-width="1.625" stroke-linecap="round" stroke-linejoin="round"/>
<path d="M8.09375 13.5H4.03125C3.58252 13.5 3.21875 13.8638 3.21875 14.3125V16.75C3.21875 17.1987 3.58252 17.5625 4.03125 17.5625H8.09375C8.54248 17.5625 8.90625 17.1987 8.90625 16.75V14.3125C8.90625 13.8638 8.54248 13.5 8.09375 13.5Z" stroke="white" stroke-width="1.625" stroke-linecap="round" stroke-linejoin="round"/>
</svg>
