<svg width="21" height="21" viewBox="0 0 21 21" fill="none" xmlns="http://www.w3.org/2000/svg">
<path d="M15.4062 7.125V5.5C15.4062 5.06902 15.235 4.6557 14.9303 4.35095C14.6256 4.0462 14.2122 3.875 13.7812 3.875H4.03125C3.60027 3.875 3.18695 4.0462 2.8822 4.35095C2.57745 4.6557 2.40625 5.06902 2.40625 5.5V11.1875C2.40625 11.6185 2.57745 12.0318 2.8822 12.3365C3.18695 12.6413 3.60027 12.8125 4.03125 12.8125H10.5312M8.90625 16.0625V12.845V15.4044M6.46875 16.0625H10.5312M15.4062 10.375H17.0312C17.9287 10.375 18.6562 11.1025 18.6562 12V16.875C18.6562 17.7725 17.9287 18.5 17.0312 18.5H15.4062C14.5088 18.5 13.7812 17.7725 13.7812 16.875V12C13.7812 11.1025 14.5088 10.375 15.4062 10.375Z" stroke="white" stroke-width="2" stroke-linecap="round" stroke-linejoin="round"/>
</svg>
