<svg width="21" height="21" viewBox="0 0 21 21" fill="none" xmlns="http://www.w3.org/2000/svg">
<path d="M3.21875 6.5625V4.9375C3.21875 4.50652 3.38995 4.0932 3.6947 3.78845C3.99945 3.4837 4.41277 3.3125 4.84375 3.3125H6.46875M14.5938 3.3125H16.2188C16.6497 3.3125 17.0631 3.4837 17.3678 3.78845C17.6725 4.0932 17.8438 4.50652 17.8438 4.9375V6.5625M17.8438 14.6875V16.3125C17.8438 16.7435 17.6725 17.1568 17.3678 17.4615C17.0631 17.7663 16.6497 17.9375 16.2188 17.9375H14.5938M6.46875 17.9375H4.84375C4.41277 17.9375 3.99945 17.7663 3.6947 17.4615C3.38995 17.1568 3.21875 16.7435 3.21875 16.3125V14.6875M11.3438 10.625C11.3438 11.0737 10.98 11.4375 10.5312 11.4375C10.0825 11.4375 9.71875 11.0737 9.71875 10.625C9.71875 10.1763 10.0825 9.8125 10.5312 9.8125C10.98 9.8125 11.3438 10.1763 11.3438 10.625ZM16.1733 10.8931C16.2339 10.7195 16.2339 10.5305 16.1733 10.3569C15.7158 9.23597 14.9348 8.27673 13.93 7.6015C12.9251 6.92626 11.7419 6.56565 10.5312 6.56565C9.3206 6.56565 8.13738 6.92626 7.13252 7.6015C6.12766 8.27673 5.3467 9.23597 4.88925 10.3569C4.82856 10.5305 4.82856 10.7195 4.88925 10.8931C5.3467 12.014 6.12766 12.9733 7.13252 13.6485C8.13738 14.3237 9.3206 14.6843 10.5312 14.6843C11.7419 14.6843 12.9251 14.3237 13.93 13.6485C14.9348 12.9733 15.7158 12.014 16.1733 10.8931Z" stroke="white" stroke-width="1.625" stroke-linecap="round" stroke-linejoin="round"/>
</svg>
