<svg width="21" height="20" viewBox="0 0 21 20" fill="none" xmlns="http://www.w3.org/2000/svg">
<path d="M12.9688 10H8.90625M12.9688 6.75H8.90625M16.2188 14.0625V4.3125C16.2188 3.88152 16.0475 3.4682 15.7428 3.16345C15.4381 2.8587 15.0247 2.6875 14.5938 2.6875H4.03125M4.03125 2.6875C4.46223 2.6875 4.87555 2.8587 5.1803 3.16345C5.48505 3.4682 5.65625 3.88152 5.65625 4.3125V15.6875C5.65625 16.1185 5.82745 16.5318 6.1322 16.8365C6.43695 17.1413 6.85027 17.3125 7.28125 17.3125M4.03125 2.6875C3.60027 2.6875 3.18695 2.8587 2.8822 3.16345C2.57745 3.4682 2.40625 3.88152 2.40625 4.3125V5.9375C2.40625 6.15299 2.49185 6.35965 2.64423 6.51202C2.7966 6.6644 3.00326 6.75 3.21875 6.75H5.65625M7.28125 17.3125H17.0312C17.4622 17.3125 17.8756 17.1413 18.1803 16.8365C18.485 16.5318 18.6562 16.1185 18.6562 15.6875V14.875C18.6562 14.6595 18.5706 14.4528 18.4183 14.3005C18.2659 14.1481 18.0592 14.0625 17.8438 14.0625H9.71875C9.50326 14.0625 9.2966 14.1481 9.14423 14.3005C8.99185 14.4528 8.90625 14.6595 8.90625 14.875V15.6875C8.90625 16.1185 8.73504 16.5318 8.4303 16.8365C8.12555 17.1413 7.71223 17.3125 7.28125 17.3125Z" stroke="white" stroke-width="2" stroke-linecap="round" stroke-linejoin="round"/>
</svg>
