<svg width="21" height="21" viewBox="0 0 21 21" fill="none" xmlns="http://www.w3.org/2000/svg">
<path d="M12.1562 15.375V5.625C12.1562 5.19402 11.985 4.7807 11.6803 4.47595C11.3756 4.1712 10.9622 4 10.5312 4H4.03125C3.60027 4 3.18695 4.1712 2.8822 4.47595C2.57745 4.7807 2.40625 5.19402 2.40625 5.625V14.5625C2.40625 14.778 2.49185 14.9847 2.64423 15.137C2.7966 15.2894 3.00326 15.375 3.21875 15.375H4.84375M4.84375 15.375C4.84375 16.2725 5.57129 17 6.46875 17C7.36621 17 8.09375 16.2725 8.09375 15.375M4.84375 15.375C4.84375 14.4775 5.57129 13.75 6.46875 13.75C7.36621 13.75 8.09375 14.4775 8.09375 15.375M12.9688 15.375H8.09375M12.9688 15.375C12.9688 16.2725 13.6963 17 14.5938 17C15.4912 17 16.2188 16.2725 16.2188 15.375M12.9688 15.375C12.9688 14.4775 13.6963 13.75 14.5938 13.75C15.4912 13.75 16.2188 14.4775 16.2188 15.375M16.2188 15.375H17.8438C18.0592 15.375 18.2659 15.2894 18.4183 15.137C18.5706 14.9847 18.6562 14.778 18.6562 14.5625V11.5969C18.6559 11.4125 18.5929 11.2337 18.4775 11.0899L15.65 7.5555C15.574 7.46034 15.4776 7.38348 15.3679 7.3306C15.2582 7.27772 15.138 7.25017 15.0163 7.25H12.1562" stroke="white" stroke-width="1.625" stroke-linecap="round" stroke-linejoin="round"/>
</svg>
