<?xml version="1.0" encoding="UTF-8"?>
<svg version="1.1" xmlns="http://www.w3.org/2000/svg" width="571" height="239">
<path d="M0 0 C2.44309194 1.152454 4.84847453 2.33000979 7.25 3.5625 C8.22453125 4.0565332 8.22453125 4.0565332 9.21875 4.56054688 C10.81434294 5.37007565 12.40742483 6.18455042 14 7 C14 7.66 14 8.32 14 9 C14.515625 9.09410156 15.03125 9.18820312 15.5625 9.28515625 C18.90950413 10.26672958 21.90956066 11.85025553 25 13.4375 C25.61617187 13.75009766 26.23234375 14.06269531 26.8671875 14.38476562 C28.57950964 15.25378748 30.28982429 16.12676169 32 17 C33.33247809 17.66837442 34.66533467 18.336004 36 19 C36 19.66 36 20.32 36 21 C36.515625 21.103125 37.03125 21.20625 37.5625 21.3125 C40.86026435 22.24263866 43.86633332 23.61395512 47 25 C47 25.66 47 26.32 47 27 C47.515625 27.103125 48.03125 27.20625 48.5625 27.3125 C51.86026435 28.24263866 54.86633332 29.61395512 58 31 C58 31.66 58 32.32 58 33 C58.515625 33.103125 59.03125 33.20625 59.5625 33.3125 C62.86026435 34.24263866 65.86633332 35.61395512 69 37 C69 37.66 69 38.32 69 39 C69.52464844 39.10054687 70.04929688 39.20109375 70.58984375 39.3046875 C79.52239669 41.88166387 88.12971985 47.49303606 95.79296875 52.6171875 C98.03482358 54.14256464 98.03482358 54.14256464 101 55 C102.13994326 60.46664674 102.14788166 65.77638486 102.14526367 71.33227539 C102.14862228 72.35899857 102.1519809 73.38572174 102.15544128 74.44355774 C102.16491961 77.82826963 102.16689257 81.21293192 102.16796875 84.59765625 C102.17118255 86.95364909 102.17454672 89.30964173 102.17805481 91.66563416 C102.18403759 96.59911563 102.18589549 101.53257961 102.18530273 106.46606445 C102.18520094 112.790144 102.19887435 119.11411171 102.21607494 125.43816471 C102.22718548 130.30143246 102.22922226 135.16467305 102.22869301 140.02795219 C102.22987373 142.35996322 102.23430068 144.69197493 102.24202538 147.02397346 C102.25180974 150.28176896 102.24895368 153.5393198 102.24291992 156.79711914 C102.24853943 157.76089478 102.25415894 158.72467041 102.25994873 159.71765137 C102.21968917 168.26104035 102.21968917 168.26104035 100 172 C97.57954835 173.56847675 95.33023441 174.82152313 92.75 176.0625 C91.20870202 176.84060175 89.66838655 177.62065185 88.12890625 178.40234375 C87.30277832 178.81726074 86.47665039 179.23217773 85.62548828 179.65966797 C80.93018677 182.05665563 76.31156954 184.59405918 71.6875 187.125 C70.74447021 187.63957764 69.80144043 188.15415527 68.82983398 188.68432617 C63.01683589 191.86569867 57.26753896 195.12884061 51.5625 198.5 C45.78677357 201.88091303 39.87704954 205.01705824 33.953125 208.12890625 C32.48947318 208.89822796 31.02593373 209.6677635 29.5625 210.4375 C28.83063477 210.82244629 28.09876953 211.20739258 27.34472656 211.60400391 C23.02310982 213.89016037 18.77162365 216.26032505 14.5625 218.75 C12.70951623 219.83535538 10.85540668 220.91879179 9 222 C7.64068359 222.79857422 7.64068359 222.79857422 6.25390625 223.61328125 C5.38636719 224.09152344 4.51882812 224.56976563 3.625 225.0625 C2.87476562 225.48660156 2.12453125 225.91070312 1.3515625 226.34765625 C-4.264356 227.90556055 -10.26885114 223.43354851 -15.125 220.8125 C-15.87346191 220.41248779 -16.62192383 220.01247559 -17.39306641 219.6003418 C-22.63143649 216.78360948 -27.79580059 213.85762411 -32.8984375 210.80078125 C-40.73132638 206.25297045 -48.76237706 202.05300617 -56.75683594 197.79833984 C-67.14824519 192.26274288 -77.49858354 186.66733684 -87.75 180.875 C-88.67071289 180.35542725 -89.59142578 179.83585449 -90.54003906 179.30053711 C-93.03654995 177.88160184 -95.528273 176.46175892 -98 175 C-98.64995312 174.71904197 -99.29990623 174.43808393 -99.9695549 174.14861202 C-102.35549653 172.97663936 -104.1100805 171.87936577 -106 170 C-107.17356583 166.30375384 -107.01293299 162.72582025 -106.90820312 158.87573242 C-106.90937134 157.75334167 -106.91053955 156.63095093 -106.91174316 155.47454834 C-106.9061722 151.76692697 -106.84395788 148.06252762 -106.78125 144.35546875 C-106.76632819 141.78430438 -106.7549409 139.21311725 -106.74694824 136.641922 C-106.71953115 130.56764053 -106.65649606 124.49468753 -106.57615232 118.42090636 C-106.48665374 111.50451976 -106.44272786 104.58807721 -106.40258884 97.67125547 C-106.31902439 83.44688382 -106.1783611 69.22348297 -106 55 C-99.375 51 -99.375 51 -96 51 C-96 50.34 -96 49.68 -96 49 C-93.35261084 47.5393715 -92.10551666 47 -89 47 C-89 46.34 -89 45.68 -89 45 C-86.09399739 43.74335022 -84.20395416 43 -81 43 C-81 42.34 -81 41.68 -81 41 C-80.33613281 40.67386719 -79.67226562 40.34773438 -78.98828125 40.01171875 C-73.43263809 37.26958181 -73.43263809 37.26958181 -68.0625 34.1875 C-66 33 -66 33 -63 33 C-63 32.34 -63 31.68 -63 31 C-62.04738281 30.52949219 -61.09476563 30.05898438 -60.11328125 29.57421875 C-58.84630039 28.94542084 -57.57937631 28.31650852 -56.3125 27.6875 C-55.37374023 27.2244043 -55.37374023 27.2244043 -54.41601562 26.75195312 C-51.60968436 25.35613391 -48.88983713 23.93116763 -46.23046875 22.26953125 C-44 21 -44 21 -41 21 C-41 20.34 -41 19.68 -41 19 C-40.38253906 18.69707031 -39.76507813 18.39414062 -39.12890625 18.08203125 C-33.95048231 15.52040601 -28.88712074 12.85356487 -23.91015625 9.91796875 C-22 9 -22 9 -19 9 C-19 8.34 -19 7.68 -19 7 C-16.35261084 5.5393715 -15.10551666 5 -12 5 C-12 4.34 -12 3.68 -12 3 C-10.75823305 2.29773859 -9.50614401 1.61370891 -8.25 0.9375 C-7.20585937 0.36322266 -7.20585937 0.36322266 -6.140625 -0.22265625 C-3.46311888 -1.1949623 -2.6504015 -1.02229772 0 0 Z M-9.3125 42.5625 C-14.24894977 45.46877163 -19.2255599 48.17790069 -24.375 50.6875 C-28.77271463 52.84966893 -32.94714413 55.10954954 -37.0546875 57.7734375 C-42.79037346 61.38991419 -48.89377436 64.42286229 -54.89453125 67.5703125 C-55.75522217 68.02188721 -56.61591309 68.47346191 -57.50268555 68.9387207 C-59.23873309 69.84820209 -60.97586215 70.75562227 -62.71411133 71.66088867 C-63.51228271 72.07830322 -64.3104541 72.49571777 -65.1328125 72.92578125 C-65.85355957 73.30130127 -66.57430664 73.67682129 -67.31689453 74.0637207 C-68.97899652 74.8876004 -68.97899652 74.8876004 -70 76 C-70.09443335 78.30053835 -70.11742128 80.60402173 -70.11352539 82.90649414 C-70.11367142 83.62840439 -70.11381744 84.35031464 -70.1139679 85.09410095 C-70.11326869 87.49114947 -70.10547595 89.88812123 -70.09765625 92.28515625 C-70.0957921 93.94282489 -70.09436818 95.60049407 -70.09336853 97.25816345 C-70.08954312 101.62954214 -70.07971265 106.00088781 -70.06866455 110.37225342 C-70.05845092 114.82954461 -70.05387101 119.28684111 -70.04882812 123.74414062 C-70.0380904 132.49610893 -70.02101371 141.24805036 -70 150 C-66.62157714 151.93443925 -63.24248835 153.86771234 -59.86328125 155.80078125 C-58.91038208 156.34641724 -57.95748291 156.89205322 -56.97570801 157.45422363 C-51.59169332 160.53330555 -46.19046838 163.56904804 -40.73046875 166.51171875 C-37.13345816 168.47232109 -33.56761175 170.48652576 -30 172.5 C-21.73079834 177.16419663 -21.73079834 177.16419663 -13.39453125 181.70703125 C-11.83386263 182.54974138 -10.2882266 183.42110154 -8.76171875 184.32421875 C-4.74467865 186.63312666 -4.74467865 186.63312666 -0.26953125 186.3671875 C3.66829675 184.72054497 7.29926162 182.7427135 11 180.625 C12.59580771 179.72429155 14.19218881 178.82459846 15.7890625 177.92578125 C16.63114258 177.45092285 17.47322266 176.97606445 18.34082031 176.48681641 C22.99482946 173.88463905 27.68750083 171.35367903 32.375 168.8125 C40.00057518 164.66914657 47.51942515 160.40033815 55 156 C58.63 154.02 62.26 152.04 66 150 C66 125.58 66 101.16 66 76 C57.37012605 71.06864345 48.75332457 66.19547277 40 61.5 C32.27119223 57.3353753 24.59224897 53.10950032 16.9921875 48.71484375 C13.09989385 46.48414282 9.15967396 44.34807088 5.20703125 42.2265625 C3 41 3 41 0 39 C-3.84415855 39 -6.12172825 40.64007969 -9.3125 42.5625 Z " fill="#1BA5E0" transform="translate(110,6)"/>
<path d="M0 0 C8.48657069 5.1249246 10.75943113 16.47870589 13.91619873 25.3359375 C15.2326412 29.02951858 16.56467195 32.71748321 17.89453125 36.40625 C18.15927246 37.14198242 18.42401367 37.87771484 18.69677734 38.63574219 C21.03082136 45.11278646 23.43952084 51.56042798 25.875 58 C29.38250485 67.28853765 32.74962796 76.61853404 36 86 C38.36639292 82.45041062 39.69804065 78.74150427 41.16015625 74.765625 C41.46615753 73.94364624 41.77215881 73.12166748 42.08743286 72.27478027 C42.74270989 70.51382287 43.39632219 68.75224526 44.0484314 66.9901123 C45.74064396 62.41758887 47.44426635 57.8493275 49.1484375 53.28125 C49.48286362 52.38420349 49.81728973 51.48715698 50.16184998 50.56292725 C53.10667363 42.67985107 56.15450082 34.8413966 59.27514648 27.02612305 C61.1044106 22.41559926 62.71391233 17.82272521 64.125 13.0625 C65.88585631 7.62922714 68.47059061 3.54556227 73 0 C78.77828564 -2.91362708 85.71130124 -2.24469645 92 -2 C93.69189453 -1.97292969 93.69189453 -1.97292969 95.41796875 -1.9453125 C96.55878906 -1.90148438 97.69960938 -1.85765625 98.875 -1.8125 C100.44894531 -1.76029297 100.44894531 -1.76029297 102.0546875 -1.70703125 C106.19440461 -0.71327953 107.44772686 0.56599291 110 4 C110.77327227 7.83637792 110.73121407 11.63207499 110.72290039 15.53564453 C110.73980927 16.70198425 110.75671814 17.86832397 110.7741394 19.07000732 C110.82332249 22.92446086 110.83644919 26.77807531 110.84765625 30.6328125 C110.87092689 33.30893782 110.89575258 35.9850108 110.92222595 38.66110229 C110.97369667 44.26803348 111.00493217 49.87480507 111.02416992 55.48193359 C111.0466657 61.96540048 111.10126067 68.44799865 111.17297941 74.93109429 C111.24125333 81.17005763 111.28681686 87.40898904 111.32201958 93.64822006 C111.33909965 96.30289851 111.361936 98.95754622 111.39055061 101.6121254 C111.42722336 105.31602024 111.43802544 109.01908994 111.44165039 112.72314453 C111.45752701 113.8265921 111.47340363 114.93003967 111.48976135 116.06692505 C111.4832959 117.57682007 111.4832959 117.57682007 111.47669983 119.11721802 C111.48126725 119.99287981 111.48583467 120.8685416 111.4905405 121.7707386 C111 124 111 124 109.09789181 125.7809124 C106.77915309 127.12833442 105.47135607 127.38572439 102.8125 127.3984375 C101.64074219 127.40423828 101.64074219 127.40423828 100.4453125 127.41015625 C99.63835937 127.39855469 98.83140625 127.38695312 98 127.375 C97.19304687 127.38660156 96.38609375 127.39820313 95.5546875 127.41015625 C94.77351562 127.40628906 93.99234375 127.40242187 93.1875 127.3984375 C92.47980469 127.39505371 91.77210938 127.39166992 91.04296875 127.38818359 C88.12333747 126.83342574 87.04853754 126.21277798 85 124 C84.36541339 120.90105859 84.43658192 117.81728597 84.45410156 114.66333008 C84.44376389 113.70704208 84.43342621 112.75075409 84.42277527 111.76548767 C84.39324297 108.5999991 84.39184588 105.43514702 84.390625 102.26953125 C84.37565042 100.07662224 84.35892481 97.88372454 84.34051514 95.69084167 C84.29674849 89.91553238 84.27682183 84.14037523 84.26177979 78.3649292 C84.2422423 72.47301196 84.20026856 66.58125986 84.16015625 60.68945312 C84.08475318 49.1263529 84.03452283 37.56328945 84 26 C82.23664882 30.86902205 80.47457663 35.73850453 78.71359253 40.60838318 C78.11671907 42.25846785 77.51952072 43.90843504 76.92196655 45.55827332 C73.24845266 55.70158959 69.62540337 65.85788442 66.125 76.0625 C63.3321008 84.19261907 60.4772404 92.29089005 57.45825195 100.34008789 C56.03086968 104.15382915 54.65884243 107.97513693 53.375 111.83984375 C53.11162842 112.62286865 52.84825684 113.40589355 52.5769043 114.21264648 C52.08268993 115.6915013 51.59902304 117.17394136 51.12817383 118.66040039 C50.20580483 121.4033493 49.25478441 123.68873628 47.4140625 125.9375 C43.53994651 127.64261254 39.7479968 127.51269294 35.5625 127.5 C34.71623047 127.52835938 33.86996094 127.55671875 32.99804688 127.5859375 C32.17498047 127.58851563 31.35191406 127.59109375 30.50390625 127.59375 C29.75955322 127.60083984 29.0152002 127.60792969 28.24829102 127.61523438 C24.81604839 126.67601715 22.9441213 124.86851212 21 122 C19.32233367 118.32473017 18.0929516 114.53385022 16.85546875 110.69140625 C16.48198807 109.57426743 16.10850739 108.4571286 15.72370911 107.30613708 C14.53088975 103.72941988 13.35848334 100.14641872 12.1875 96.5625 C10.64448906 91.89541592 9.09366399 87.23094175 7.54296875 82.56640625 C7.16139618 81.41347076 6.77982361 80.26053528 6.38668823 79.07266235 C3.73121439 71.08250034 0.94698244 63.1500426 -2.00776672 55.26551819 C-5.6007129 45.60201711 -8.76669348 35.78819125 -12 26 C-12.00364563 27.22108963 -12.00729126 28.44217926 -12.01104736 29.70027161 C-12.0479455 41.19280693 -12.10566123 52.68507301 -12.18390274 64.17740345 C-12.2234573 70.0861353 -12.25560661 75.99471633 -12.27099609 81.90356445 C-12.28611012 87.60308632 -12.32046197 93.30219378 -12.36830902 99.0015316 C-12.38317716 101.17885428 -12.39104411 103.35623611 -12.39188385 105.53360939 C-12.39423892 108.57730219 -12.42120074 111.61983601 -12.45410156 114.66333008 C-12.4490712 115.56891663 -12.44404083 116.47450317 -12.43885803 117.40753174 C-12.54120733 123.5039271 -12.54120733 123.5039271 -14.90544128 126.06027222 C-17.18949943 127.08501928 -18.72634905 127.37370248 -21.22265625 127.36328125 C-22.40118164 127.36231445 -22.40118164 127.36231445 -23.60351562 127.36132812 C-24.82071289 127.3371582 -24.82071289 127.3371582 -26.0625 127.3125 C-27.28549805 127.31733398 -27.28549805 127.31733398 -28.53320312 127.32226562 C-34.59883903 127.26744065 -34.59883903 127.26744065 -38 125 C-38.38590336 122.87816906 -38.38590336 122.87816906 -38.40113831 120.19950867 C-38.42033073 118.67905441 -38.42033073 118.67905441 -38.43991089 117.12788391 C-38.43855133 116.01149033 -38.43719177 114.89509674 -38.43579102 113.74487305 C-38.44586685 112.57243042 -38.45594269 111.39998779 -38.46632385 110.1920166 C-38.48998837 106.97073734 -38.49985938 103.74980568 -38.50177121 100.52844977 C-38.50461772 97.83966979 -38.51565211 95.15094563 -38.5262875 92.46218711 C-38.5507334 86.11709671 -38.55803931 79.77213403 -38.5559082 73.42700195 C-38.55410702 66.88296052 -38.58573441 60.33966196 -38.63313919 53.79580849 C-38.67238535 48.17786663 -38.68845904 42.56016727 -38.68654197 36.94208938 C-38.68577731 33.58653639 -38.69431058 30.23164284 -38.72607613 26.87622643 C-38.75541496 23.13129189 -38.7468694 19.38827484 -38.72875977 15.64331055 C-38.74561829 14.53298965 -38.76247681 13.42266876 -38.77984619 12.27870178 C-38.68982092 4.9663731 -38.68982092 4.9663731 -36.72099113 2.20823097 C-28.27608389 -5.13709635 -10.01861169 -2.99569207 0 0 Z " fill="#0A75C1" transform="translate(351,59)"/>
<path d="M0 0 C0.495 0.99 0.495 0.99 1 2 C2.73636719 1.87238281 2.73636719 1.87238281 4.5078125 1.7421875 C9.49220024 1.7487661 12.7131178 3.55481582 16.875 6.125 C17.5747998 6.53733887 18.27459961 6.94967773 18.99560547 7.37451172 C21.00844441 8.56529031 23.00639051 9.77736489 25 11 C31.60450512 15.02986753 38.24345342 18.65502422 45.1953125 22.0625 C50.07301546 24.50007124 54.78956069 27.22637879 59.49462891 29.97973633 C61.31070676 31.02693831 63.14856039 32.01711762 65 33 C65.92425781 33.52851563 66.84851563 34.05703125 67.80078125 34.6015625 C73.21840855 35.27628531 77.11038839 32.23872854 81.6875 29.5625 C82.72463135 28.97791016 83.7617627 28.39332031 84.83032227 27.79101562 C87.05866047 26.5340809 89.28239745 25.26896117 91.50195312 23.99658203 C95.07127691 21.95214348 98.66526154 19.95399333 102.265625 17.96484375 C102.8661116 17.63295547 103.46659821 17.3010672 104.08528137 16.9591217 C105.28335703 16.29698492 106.48146158 15.63490042 107.67959595 14.97286987 C110.47589254 13.42532653 113.26721253 11.86888734 116.05859375 10.3125 C117.07244141 9.74877686 118.08628906 9.18505371 119.13085938 8.60424805 C120.96545938 7.57845187 122.79539913 6.54424697 124.61914062 5.49926758 C125.40353516 5.05220459 126.18792969 4.6051416 126.99609375 4.14453125 C127.66439209 3.75885986 128.33269043 3.37318848 129.02124023 2.97583008 C133.06184344 0.98319701 136.54045594 0.29553906 141 1 C145.54805212 2.89328316 149.70987173 5.24530846 153.93115234 7.77246094 C156.8414513 9.49927037 159.79877202 11.13783619 162.75537109 12.78369141 C165.8460695 14.50643245 168.92285579 16.25318489 172 18 C171.01 18.33 170.02 18.66 169 19 C168.90074219 19.60199219 168.80148438 20.20398438 168.69921875 20.82421875 C167.60676814 24.22363211 164.80114197 25.22749358 161.8125 26.8125 C161.1839209 27.15869385 160.5553418 27.5048877 159.90771484 27.86157227 C154.54645578 30.7854701 149.07195156 33.47910017 143.59375 36.17578125 C139.19565557 38.3760262 134.9363405 40.80814037 130.66455078 43.24194336 C124.4903605 46.74990638 118.25022757 50.12973147 112 53.5 C105.01765387 57.27009574 98.04258876 61.04956749 91.125 64.9375 C90.17016724 65.47407227 90.17016724 65.47407227 89.19604492 66.02148438 C84.75979722 68.53183208 80.40750594 71.16038696 76.11328125 73.90625 C73.61093436 75.20136484 71.82458354 75.81422769 69 76 C66.1171875 74.953125 66.1171875 74.953125 62.875 73.25 C62.28098389 72.94070557 61.68696777 72.63141113 61.07495117 72.31274414 C54.17952324 68.6685329 47.45840511 64.70114411 40.73828125 60.74609375 C32.37288647 55.85589288 23.79491148 51.34994801 15.24267578 46.79785156 C3.83589941 40.72210461 -7.49667415 34.54327219 -18.71582031 28.12475586 C-23.09179502 25.62368081 -27.45869666 23.18821877 -32 21 C-31.81884766 19.20922852 -31.81884766 19.20922852 -31 17 C-28.79443359 15.30834961 -28.79443359 15.30834961 -25.8984375 13.65234375 C-24.85042969 13.04712891 -23.80242188 12.44191406 -22.72265625 11.81835938 C-21.61792969 11.19767578 -20.51320313 10.57699219 -19.375 9.9375 C-18.29347656 9.31294922 -17.21195313 8.68839844 -16.09765625 8.04492188 C-10.83770985 5.03602702 -5.64631818 2.20837373 0 0 Z " fill="#0955B4" transform="translate(38,157)"/>
<path d="M0 0 C2.44309194 1.152454 4.84847453 2.33000979 7.25 3.5625 C7.8996875 3.89185547 8.549375 4.22121094 9.21875 4.56054688 C10.81434294 5.37007565 12.40742483 6.18455042 14 7 C14 7.66 14 8.32 14 9 C14.515625 9.09410156 15.03125 9.18820312 15.5625 9.28515625 C18.90950413 10.26672958 21.90956066 11.85025553 25 13.4375 C25.92425781 13.90639648 25.92425781 13.90639648 26.8671875 14.38476562 C28.57950964 15.25378748 30.28982429 16.12676169 32 17 C33.33247809 17.66837442 34.66533467 18.336004 36 19 C36 19.66 36 20.32 36 21 C36.515625 21.103125 37.03125 21.20625 37.5625 21.3125 C40.86026435 22.24263866 43.86633332 23.61395512 47 25 C47 25.66 47 26.32 47 27 C47.515625 27.103125 48.03125 27.20625 48.5625 27.3125 C51.86026435 28.24263866 54.86633332 29.61395512 58 31 C58 31.66 58 32.32 58 33 C58.515625 33.103125 59.03125 33.20625 59.5625 33.3125 C62.86026435 34.24263866 65.86633332 35.61395512 69 37 C69 37.66 69 38.32 69 39 C69.52464844 39.10054687 70.04929687 39.20109375 70.58984375 39.3046875 C79.52239669 41.88166387 88.12971985 47.49303606 95.79296875 52.6171875 C98.03482358 54.14256464 98.03482358 54.14256464 101 55 C102.13994326 60.46664674 102.14788166 65.77638486 102.14526367 71.33227539 C102.14862228 72.35899857 102.1519809 73.38572174 102.15544128 74.44355774 C102.16491961 77.82826963 102.16689257 81.21293192 102.16796875 84.59765625 C102.17118255 86.95364909 102.17454672 89.30964173 102.17805481 91.66563416 C102.18403759 96.59911563 102.18589549 101.53257961 102.18530273 106.46606445 C102.18520094 112.790144 102.19887435 119.11411171 102.21607494 125.43816471 C102.22718548 130.30143246 102.22922226 135.16467305 102.22869301 140.02795219 C102.22987373 142.35996322 102.23430068 144.69197493 102.24202538 147.02397346 C102.25180974 150.28176896 102.24895368 153.5393198 102.24291992 156.79711914 C102.24853943 157.76089478 102.25415894 158.72467041 102.25994873 159.71765137 C102.21997701 168.19995826 102.21997701 168.19995826 100 172 C97.875 172.8125 97.875 172.8125 96 173 C96.66 171.68 97.32 170.36 98 169 C96.81645306 168.34106175 95.63284587 167.68223172 94.44921875 167.0234375 C93.69302246 166.60239746 92.93682617 166.18135742 92.15771484 165.74755859 C90.50438102 164.82889455 88.84974526 163.91256988 87.19384766 162.99853516 C83.64728296 161.0396727 80.11946926 159.07104328 76.63671875 157 C71.07775236 153.72909474 67.47792864 152.26664959 61 153 C62 151 62 151 65 150 C65 125.58 65 101.16 65 76 C56.37752047 71.29268025 56.37752047 71.29268025 47.73046875 66.6328125 C37.39123979 61.091067 27.06387865 55.55160326 16.91015625 49.67578125 C10.37277551 45.91130294 3.74709998 42.37354999 -3 39 C-2.67 26.46 -2.34 13.92 -2 1 C-6.94463635 2.33563616 -6.94463635 2.33563616 -8 5 C-9.32 5 -10.64 5 -12 5 C-12 4.34 -12 3.68 -12 3 C-10.75823305 2.29773859 -9.50614401 1.61370891 -8.25 0.9375 C-7.20585938 0.36322266 -7.20585938 0.36322266 -6.140625 -0.22265625 C-3.46311888 -1.1949623 -2.6504015 -1.02229772 0 0 Z " fill="#80D6F3" transform="translate(110,6)"/>
<path d="M0 0 C2.70958346 1.13965786 5.17640224 2.6039094 7.6875 4.125 C9.1142694 4.95887071 10.54135359 5.79220305 11.96875 6.625 C12.6596875 7.03363281 13.350625 7.44226563 14.0625 7.86328125 C16.57566484 9.33773885 19.12504334 10.73825875 21.6875 12.125 C22.95980469 12.81916016 22.95980469 12.81916016 24.2578125 13.52734375 C26.32779248 14.63899966 28.40770201 15.732194 30.4921875 16.81640625 C31.38224487 17.28312744 31.38224487 17.28312744 32.2902832 17.75927734 C33.97314804 18.64070069 35.66029024 19.51394323 37.34765625 20.38671875 C40 22 40 22 42 25 C42.26069641 27.12487793 42.26069641 27.12487793 42.2746582 29.60742188 C42.28419022 30.53848755 42.29372223 31.46955322 42.30354309 32.42883301 C42.30263168 33.43200562 42.30172028 34.43517822 42.30078125 35.46875 C42.30506638 36.50060425 42.3093515 37.5324585 42.31376648 38.59558105 C42.31951086 40.77774318 42.32000926 42.95992446 42.31567383 45.14208984 C42.3125123 48.48698437 42.33597766 51.83099602 42.36132812 55.17578125 C42.36360088 57.29426971 42.36430472 59.41276056 42.36328125 61.53125 C42.372491 62.53442261 42.38170074 63.53759521 42.39118958 64.57116699 C42.38496078 65.50223267 42.37873199 66.43329834 42.37231445 67.39257812 C42.37294388 68.21181763 42.3735733 69.03105713 42.3742218 69.87512207 C41.90768421 72.52418052 41.0737729 73.33932888 39 75 C37.19825915 76.11523417 35.36109067 77.17440629 33.5 78.1875 C32.5409375 78.71730469 31.581875 79.24710937 30.59375 79.79296875 C28 81 28 81 25 81 C25 81.66 25 82.32 25 83 C24.12859375 83.42410156 23.2571875 83.84820312 22.359375 84.28515625 C15.19816747 87.80306659 8.30042187 91.49083294 1.5234375 95.71484375 C-1 97 -1 97 -5 97 C-5 96.34 -5 95.68 -5 95 C-6.06516846 94.84374146 -6.06516846 94.84374146 -7.15185547 94.68432617 C-10.35819654 93.9139358 -12.70833895 92.68491336 -15.5703125 91.05078125 C-16.6325 90.44943359 -17.6946875 89.84808594 -18.7890625 89.22851562 C-19.88992187 88.59623047 -20.99078125 87.96394531 -22.125 87.3125 C-24.29394226 86.07884923 -26.46321078 84.84577187 -28.6328125 83.61328125 C-29.69016602 83.0095166 -30.74751953 82.40575195 -31.83691406 81.78369141 C-35.80886655 79.54387319 -39.82300887 77.38772011 -43.85107422 75.25073242 C-46 74 -46 74 -48 72 C-48.24723816 69.99537659 -48.24723816 69.99537659 -48.24291992 67.50610352 C-48.24599655 66.57496231 -48.24907318 65.64382111 -48.25224304 64.6844635 C-48.24505753 63.67612961 -48.23787201 62.66779572 -48.23046875 61.62890625 C-48.23001053 60.59563705 -48.22955231 59.56236786 -48.2290802 58.49778748 C-48.2260553 56.30962986 -48.21816196 54.12147445 -48.20581055 51.93334961 C-48.18759418 48.5798379 -48.18530056 45.22660281 -48.18554688 41.87304688 C-48.18063021 39.74999761 -48.17480124 37.62695022 -48.16796875 35.50390625 C-48.16685593 34.49759659 -48.1657431 33.49128693 -48.16459656 32.45448303 C-48.15502678 31.05304298 -48.15502678 31.05304298 -48.14526367 29.62329102 C-48.14145187 28.80103531 -48.13764008 27.9787796 -48.13371277 27.13160706 C-48 25 -48 25 -47 22 C-44.40234375 20.4921875 -44.40234375 20.4921875 -40.9375 18.875 C-35.44601768 16.24882511 -30.10288616 13.44854125 -24.8125 10.4375 C-24.14033447 10.05779053 -23.46816895 9.67808105 -22.77563477 9.28686523 C-19.75472208 7.57765978 -16.74702475 5.85144173 -13.75390625 4.09375 C-12.80386719 3.5471875 -11.85382813 3.000625 -10.875 2.4375 C-10.06804687 1.96183594 -9.26109375 1.48617187 -8.4296875 0.99609375 C-5.29097696 -0.29067665 -3.37960342 -0.43648015 0 0 Z " fill="#1DA5E1" transform="translate(111,71)"/>
<path d="M0 0 C0.6544812 -0.0049649 1.3089624 -0.00992981 1.98327637 -0.01504517 C4.12948691 -0.02954659 6.2756237 -0.03644661 8.421875 -0.04199219 C9.1590979 -0.04481956 9.8963208 -0.04764694 10.65588379 -0.05056 C14.55314487 -0.06549971 18.45036939 -0.07476355 22.34765625 -0.07910156 C26.3624729 -0.08459518 30.37695197 -0.10865657 34.3916626 -0.13707352 C37.49040703 -0.15573111 40.58907036 -0.16090703 43.68786621 -0.16243744 C45.16778418 -0.16545473 46.64770104 -0.17345197 48.12756348 -0.18662262 C50.19988562 -0.20375818 52.27138495 -0.20178585 54.34375 -0.1953125 C56.1086377 -0.20078094 56.1086377 -0.20078094 57.90917969 -0.20635986 C61.61154841 0.21065529 64.01209553 1.2102765 67.171875 3.16113281 C69.93797951 8.44187779 70.1953636 14.80855609 68.46240234 20.48510742 C66.02356082 26.59343864 63.03158674 31.98602311 59.421875 37.47363281 C58.34703716 39.13990029 57.27281954 40.80656801 56.19921875 42.47363281 C55.67956543 43.27542969 55.15991211 44.07722656 54.62451172 44.90332031 C52.69697516 47.89926285 50.83749869 50.93107963 48.984375 53.97363281 C45.9004888 59.01128543 42.72646324 63.98300967 39.52001953 68.94287109 C36.45488222 73.69468644 33.48783031 78.50217966 30.5390625 83.32714844 C27.70348352 87.93937308 24.80495128 92.51171841 21.91015625 97.08691406 C21.35670532 97.96238892 20.80325439 98.83786377 20.23303223 99.73986816 C18.87969064 101.88052882 17.52596306 104.0209443 16.171875 106.16113281 C16.81889374 106.17144028 17.46591248 106.18174774 18.13253784 106.19236755 C24.84806722 106.30029031 31.56345854 106.41489961 38.27880859 106.53344727 C40.78724284 106.57684185 43.29570749 106.61851351 45.80419922 106.65844727 C49.40341368 106.71604039 53.00247442 106.77976624 56.6015625 106.84472656 C57.72867645 106.86143906 58.85579041 106.87815155 60.01705933 106.89537048 C61.57845139 106.92528831 61.57845139 106.92528831 63.17138672 106.95581055 C64.09071991 106.97135483 65.0100531 106.98689911 65.95724487 107.00291443 C68.171875 107.16113281 68.171875 107.16113281 70.171875 108.16113281 C71.35419085 111.70808037 71.39373616 114.96791034 71.421875 118.66113281 C71.4425 119.33789062 71.463125 120.01464844 71.484375 120.71191406 C71.52293051 125.59882552 71.52293051 125.59882552 70.11520386 127.85366821 C67.16522311 129.83840455 64.18568942 129.57866836 60.75048828 129.54931641 C59.6207106 129.55720184 59.6207106 129.55720184 58.46810913 129.56524658 C55.97592482 129.57846007 53.48437843 129.56970227 50.9921875 129.55957031 C49.25967283 129.56159109 47.52715898 129.56450256 45.79464722 129.56826782 C42.16135571 129.57269334 38.52828534 129.56625443 34.89501953 129.55224609 C30.24213552 129.53517949 25.58977161 129.54497777 20.93690681 129.56296349 C17.35777894 129.57381699 13.77877381 129.57034736 10.19964218 129.56258011 C8.48446465 129.56058111 6.76927592 129.56302685 5.05411148 129.57001877 C2.65312563 129.57765627 0.25297463 129.56599637 -2.14794922 129.54931641 C-2.85461731 129.5553891 -3.5612854 129.56146179 -4.28936768 129.56771851 C-8.62320101 129.51207246 -11.4089407 128.86791066 -14.828125 126.16113281 C-17.36701184 120.5063394 -17.20958187 115.09431296 -15.828125 109.16113281 C-14.42829422 105.66155587 -12.70343394 102.42656901 -10.828125 99.16113281 C-10.4259375 98.44054687 -10.02375 97.71996094 -9.609375 96.97753906 C-8.69939077 95.36231706 -7.76657955 93.7599813 -6.828125 92.16113281 C-6.168125 92.16113281 -5.508125 92.16113281 -4.828125 92.16113281 C-4.57546875 91.29488281 -4.3228125 90.42863281 -4.0625 89.53613281 C-2.76713781 85.99438303 -1.16456965 83.29864356 0.921875 80.16113281 C1.72746538 78.93646584 2.53208329 77.71115883 3.3359375 76.48535156 C4.00544434 75.46900635 4.00544434 75.46900635 4.68847656 74.43212891 C7.60082521 69.97349376 10.44299802 65.46982087 13.296875 60.97363281 C14.44519221 59.16756674 15.59362762 57.36157582 16.7421875 55.55566406 C17.30220459 54.67442871 17.86222168 53.79319336 18.43920898 52.88525391 C19.64043927 50.9966633 20.84318059 49.10903326 22.04711914 47.22216797 C22.65934326 46.2622998 23.27156738 45.30243164 23.90234375 44.31347656 C24.45301514 43.45101318 25.00368652 42.5885498 25.57104492 41.69995117 C29.61506259 35.28638708 33.41019909 28.74406565 37.171875 22.16113281 C20.671875 22.16113281 4.171875 22.16113281 -12.828125 22.16113281 C-14.82411029 18.16916222 -15.09987178 16.53493186 -15.078125 12.22363281 C-15.08328125 11.20398438 -15.0884375 10.18433594 -15.09375 9.13378906 C-14.81058543 5.96484444 -14.51597762 3.87236734 -12.828125 1.16113281 C-8.54968033 0.15292015 -4.38199106 0.02542959 0 0 Z " fill="#0A74C1" transform="translate(495.828125,56.8388671875)"/>
<path d="M0 0 C1.92005859 0.00580078 1.92005859 0.00580078 3.87890625 0.01171875 C7.21236809 0.29347129 9.49404566 0.76129408 12.4375 2.3125 C13.66991953 4.77733905 13.57148924 6.40703854 13.58467102 9.16441345 C13.59182632 10.1893541 13.59898163 11.21429474 13.60635376 12.27029419 C13.61038712 13.96362381 13.61038712 13.96362381 13.61450195 15.69116211 C13.62107315 16.87657089 13.62764435 18.06197968 13.63441467 19.28330994 C13.6507676 22.53948876 13.66237534 25.79563399 13.6706202 29.05184245 C13.67576927 31.08511215 13.68184495 33.11837728 13.68813133 35.15164375 C13.70718049 41.51028282 13.72141384 47.86891027 13.7297433 54.22757238 C13.73952461 61.57359382 13.76586814 68.91931466 13.80624419 76.26523012 C13.83636776 81.94000761 13.85120845 87.61469873 13.85452431 93.28955466 C13.85687857 96.68068464 13.86588716 100.07149337 13.89098549 103.46253777 C13.91518609 107.24342031 13.91444681 111.02350801 13.9074707 114.80444336 C13.92028076 115.93130554 13.93309082 117.05816772 13.94628906 118.21917725 C13.93934525 119.24693771 13.93240143 120.27469818 13.92524719 121.33360291 C13.92763555 122.22790984 13.9300239 123.12221678 13.93248463 124.04362392 C13.4375 126.3125 13.4375 126.3125 11.54043865 128.09941959 C9.15832175 129.47354401 7.76269035 129.69860727 5.03125 129.7109375 C3.79181641 129.71673828 3.79181641 129.71673828 2.52734375 129.72265625 C1.24537109 129.70525391 1.24537109 129.70525391 -0.0625 129.6875 C-0.91714844 129.69910156 -1.77179688 129.71070313 -2.65234375 129.72265625 C-3.47863281 129.71878906 -4.30492187 129.71492187 -5.15625 129.7109375 C-6.28063477 129.70586182 -6.28063477 129.70586182 -7.42773438 129.70068359 C-10.22116278 129.19272943 -11.5010189 128.25821706 -13.5625 126.3125 C-14.05469131 124.02241993 -14.05469131 124.02241993 -14.04351807 121.28218079 C-14.04901672 120.24311584 -14.05451538 119.2040509 -14.06018066 118.13349915 C-14.04579956 116.99414413 -14.03141846 115.85478912 -14.01660156 114.6809082 C-14.01718567 113.48078094 -14.01776978 112.28065369 -14.01837158 111.04415894 C-14.01606056 107.75272654 -13.99598788 104.46229501 -13.96807575 101.17103982 C-13.94308739 97.73174752 -13.94072215 94.29244219 -13.93597412 90.85307312 C-13.92353671 84.34004783 -13.89070504 77.8272908 -13.85057616 71.31438369 C-13.80588202 63.89974099 -13.7838774 56.48508555 -13.76379442 49.07034171 C-13.72197284 33.8175724 -13.65160625 18.56507077 -13.5625 3.3125 C-8.72692204 0.73292826 -5.51637313 -0.07236413 0 0 Z " fill="#0F78C2" transform="translate(272.5625,56.6875)"/>
<path d="M0 0 C0.66 0.33 1.32 0.66 2 1 C1.67 1.66 1.34 2.32 1 3 C1.680625 3.268125 2.36125 3.53625 3.0625 3.8125 C6.39710809 5.16053306 9.69743237 6.57536298 13 8 C13 8.66 13 9.32 13 10 C13.763125 10.20625 14.52625 10.4125 15.3125 10.625 C25.39907677 14.38609642 34.74970727 20.71411844 44 26 C44 41.84 44 57.68 44 74 C44.99 74.495 44.99 74.495 46 75 C44.68 75 43.36 75 42 75 C42 74.34 42 73.68 42 73 C40.93483154 72.84374146 40.93483154 72.84374146 39.84814453 72.68432617 C36.64180346 71.9139358 34.29166105 70.68491336 31.4296875 69.05078125 C30.3675 68.44943359 29.3053125 67.84808594 28.2109375 67.22851562 C27.11007813 66.59623047 26.00921875 65.96394531 24.875 65.3125 C22.70605774 64.07884923 20.53678922 62.84577187 18.3671875 61.61328125 C17.30983398 61.0095166 16.25248047 60.40575195 15.16308594 59.78369141 C11.19113345 57.54387319 7.17699113 55.38772011 3.14892578 53.25073242 C1 52 1 52 -1 50 C-1.24723816 47.99537659 -1.24723816 47.99537659 -1.24291992 45.50610352 C-1.24599655 44.57496231 -1.24907318 43.64382111 -1.25224304 42.6844635 C-1.24505753 41.67612961 -1.23787201 40.66779572 -1.23046875 39.62890625 C-1.23001053 38.59563705 -1.22955231 37.56236786 -1.2290802 36.49778748 C-1.2260553 34.30962986 -1.21816196 32.12147445 -1.20581055 29.93334961 C-1.18759418 26.5798379 -1.18530056 23.22660281 -1.18554688 19.87304688 C-1.18063021 17.74999761 -1.17480124 15.62695022 -1.16796875 13.50390625 C-1.16685593 12.49759659 -1.1657431 11.49128693 -1.16459656 10.45448303 C-1.15502678 9.05304298 -1.15502678 9.05304298 -1.14526367 7.62329102 C-1.14145187 6.80103531 -1.13764008 5.9787796 -1.13371277 5.13160706 C-1 3 -1 3 0 0 Z " fill="#81D5F3" transform="translate(64,93)"/>
<path d="M0 0 C2.70837041 1.14276612 5.17627703 2.60376968 7.6875 4.125 C9.11165306 4.95758931 10.53613326 5.78961929 11.9609375 6.62109375 C12.65155273 7.02956543 13.34216797 7.43803711 14.05371094 7.85888672 C16.61029065 9.35781466 19.20533105 10.77872715 21.8125 12.1875 C22.66199219 12.65285156 23.51148438 13.11820313 24.38671875 13.59765625 C26.27208335 14.60938404 28.17262704 15.59300151 30.08203125 16.55859375 C31.08621094 17.07550781 32.09039062 17.59242187 33.125 18.125 C34.03507812 18.58132812 34.94515625 19.03765625 35.8828125 19.5078125 C38.38986467 21.27477547 38.44062828 22.09914136 39 25 C35.06308897 27.2093845 31.12536148 29.41731003 27.1875 31.625 C26.08728516 32.24246094 24.98707031 32.85992187 23.85351562 33.49609375 C17.7353734 36.92514102 11.60284246 40.32243711 5.4309082 43.65380859 C3.69590795 44.61461922 1.98977216 45.62832584 0.30566406 46.67578125 C-2 48 -2 48 -3.87890625 47.9140625 C-6.99352773 46.57184993 -9.96626364 45.00319955 -12.9375 43.375 C-13.59049072 43.02179688 -14.24348145 42.66859375 -14.91625977 42.3046875 C-16.27066591 41.5717802 -17.62409262 40.8370602 -18.9765625 40.10058594 C-21.54487265 38.70363346 -24.12003801 37.31963817 -26.69555664 35.93603516 C-29.13190262 34.626862 -31.5659702 33.31347308 -34 32 C-34 31.34 -34 30.68 -34 30 C-35.051875 29.731875 -36.10375 29.46375 -37.1875 29.1875 C-40.57519246 28.1323171 -43.07089567 26.95273622 -46 25 C-44.78751675 21.2278299 -42.63028526 19.98204232 -39.23046875 18.1875 C-36.57710925 16.77485326 -34.01720234 15.23049953 -31.4375 13.6875 C-25.78629907 10.37791759 -20.01291826 7.44315019 -14.12890625 4.578125 C-11.03033058 3.09647194 -11.03033058 3.09647194 -8.46484375 1.296875 C-5.27805743 -0.37984934 -3.57194558 -0.50209839 0 0 Z " fill="#0855B4" transform="translate(111,71)"/>
<path d="M0 0 C0 0.99 0 1.98 0 3 C-0.99 3.33 -1.98 3.66 -3 4 C-3 41.29 -3 78.58 -3 117 C-3.66 116.67 -4.32 116.34 -5 116 C-5 78.05 -5 40.1 -5 1 C-3.35 0.67 -1.7 0.34 0 0 Z " fill="#57BDE5" transform="translate(9,60)"/>
<path d="M0 0 C0.99 0 1.98 0 3 0 C2.67 34.65 2.34 69.3 2 105 C1.01 105.495 1.01 105.495 0 106 C0 71.02 0 36.04 0 0 Z " fill="#589AC6" transform="translate(336,78)"/>
<path d="M0 0 C0.6544812 -0.0049649 1.3089624 -0.00992981 1.98327637 -0.01504517 C4.12948691 -0.02954659 6.2756237 -0.03644661 8.421875 -0.04199219 C9.1590979 -0.04481956 9.8963208 -0.04764694 10.65588379 -0.05056 C14.55314487 -0.06549971 18.45036939 -0.07476355 22.34765625 -0.07910156 C26.3624729 -0.08459518 30.37695197 -0.10865657 34.3916626 -0.13707352 C37.49040703 -0.15573111 40.58907036 -0.16090703 43.68786621 -0.16243744 C45.16778418 -0.16545473 46.64770104 -0.17345197 48.12756348 -0.18662262 C50.19988562 -0.20375818 52.27138495 -0.20178585 54.34375 -0.1953125 C56.1086377 -0.20078094 56.1086377 -0.20078094 57.90917969 -0.20635986 C61.56035258 0.20488886 64.00508002 1.34255422 67.171875 3.16113281 C67.171875 3.82113281 67.171875 4.48113281 67.171875 5.16113281 C66.181875 5.16113281 65.191875 5.16113281 64.171875 5.16113281 C64.171875 4.50113281 64.171875 3.84113281 64.171875 3.16113281 C38.761875 3.16113281 13.351875 3.16113281 -12.828125 3.16113281 C-13.158125 4.15113281 -13.488125 5.14113281 -13.828125 6.16113281 C-13.498125 4.51113281 -13.168125 2.86113281 -12.828125 1.16113281 C-8.50254785 0.33757001 -4.40075618 0.02553849 0 0 Z " fill="#9DC0D3" transform="translate(495.828125,56.8388671875)"/>
<path d="M0 0 C1.09570312 0.00902344 2.19140625 0.01804688 3.3203125 0.02734375 C4.16335937 0.03894531 5.00640625 0.05054688 5.875 0.0625 C5.875 1.0525 5.875 2.0425 5.875 3.0625 C7.525 2.7325 9.175 2.4025 10.875 2.0625 C9.45066468 4.91117064 7.48176381 5.51802203 4.6875 7 C3.69363281 7.52722656 2.69976562 8.05445313 1.67578125 8.59765625 C0.28939453 9.32275391 0.28939453 9.32275391 -1.125 10.0625 C-2.28 10.68125 -3.435 11.3 -4.625 11.9375 C-7.125 13.0625 -7.125 13.0625 -10.125 13.0625 C-9.98331863 11.62458484 -9.83648957 10.1871763 -9.6875 8.75 C-9.60628906 7.94949219 -9.52507812 7.14898437 -9.44140625 6.32421875 C-9.125 4.0625 -9.125 4.0625 -8.125 1.0625 C-5.36047967 -0.31976016 -3.0788637 -0.03275387 0 0 Z " fill="#2FABE0" transform="translate(118.125,153.9375)"/>
<path d="M0 0 C0.66 0.66 1.32 1.32 2 2 C4.10820797 1.6814823 4.10820797 1.6814823 6 1 C6 3 6 5 6 7 C4.68 7 3.36 7 2 7 C2 8.32 2 9.64 2 11 C1.34 11 0.68 11 0 11 C0 11.66 0 12.32 0 13 C0.99 13 1.98 13 3 13 C3 13.66 3 14.32 3 15 C-1.8274799 13.58707905 -5.7162359 11.57025846 -10 9 C-9.78515625 7.171875 -9.78515625 7.171875 -9 5 C-6.93359375 3.515625 -6.93359375 3.515625 -4.4375 2.25 C-3.61121094 1.82203125 -2.78492188 1.3940625 -1.93359375 0.953125 C-1.29550781 0.63859375 -0.65742188 0.3240625 0 0 Z " fill="#175FB7" transform="translate(16,169)"/>
<path d="M0 0 C0.66 0.33 1.32 0.66 2 1 C1.814375 1.9075 1.62875 2.815 1.4375 3.75 C0.79926433 6.85025954 0.79926433 6.85025954 1.625 9.1875 C1.74875 9.785625 1.8725 10.38375 2 11 C1.01 11.99 0.02 12.98 -1 14 C-4.3 12.35 -7.6 10.7 -11 9 C-8.30314976 3.60629952 -5.31922169 2.65961084 0 0 Z " fill="#1F64B5" transform="translate(76,87)"/>
<path d="M0 0 C0.33 0 0.66 0 1 0 C1.15400491 8.77964689 1.30218462 17.55936727 1.4429636 26.33923626 C1.50851771 30.41623498 1.57606498 34.49318023 1.64819336 38.57006836 C1.71774928 42.50572432 1.78203552 46.44143455 1.84269524 50.37723732 C1.86673934 51.87753223 1.89267034 53.37779814 1.92053413 54.87802696 C1.95928706 56.98203375 1.99128205 59.0860444 2.02172852 61.19018555 C2.04171402 62.38709518 2.06169952 63.58400482 2.08229065 64.81718445 C2.00808494 67.68729269 1.66924765 70.21588144 1 73 C1.99 73.33 2.98 73.66 4 74 C4 74.66 4 75.32 4 76 C0.7 76 -2.6 76 -6 76 C-5.505 75.01 -5.505 75.01 -5 74 C-2.525 73.505 -2.525 73.505 0 73 C0 48.91 0 24.82 0 0 Z " fill="#76D1F2" transform="translate(177,83)"/>
<path d="M0 0 C0.33 0 0.66 0 1 0 C1 24.75 1 49.5 1 75 C2.98 75.66 4.96 76.32 7 77 C7 77.33 7 77.66 7 78 C5.02 78 3.04 78 1 78 C-0.48396918 75.03206164 -0.17405553 72.32366 -0.22119141 69.01171875 C-0.2326973 68.29287506 -0.24420319 67.57403137 -0.25605774 66.83340454 C-0.2928128 64.45148011 -0.32241679 62.06952883 -0.3515625 59.6875 C-0.37467171 58.03604753 -0.39806199 56.38459896 -0.42172241 54.7331543 C-0.47020557 51.26972811 -0.51513339 47.80627825 -0.55761719 44.34277344 C-0.6124541 39.89701572 -0.6762819 35.45144068 -0.74279213 31.00584412 C-0.79279976 27.59505718 -0.83795265 24.18421926 -0.88163376 20.77334595 C-0.90323926 19.13381877 -0.92639253 17.49431125 -0.9510994 15.85482788 C-0.98488298 13.5660094 -1.01212027 11.27720519 -1.03759766 8.98828125 C-1.06305161 7.03208862 -1.06305161 7.03208862 -1.08901978 5.03637695 C-1 2 -1 2 0 0 Z " fill="#1C9ACE" transform="translate(38,81)"/>
<path d="M0 0 C0.70809814 0.00676758 1.41619629 0.01353516 2.14575195 0.02050781 C20.46427503 0.37361618 20.46427503 0.37361618 26.625 6.25 C28.0234375 8.3203125 28.0234375 8.3203125 29 10.375 C29.33773437 11.05820313 29.67546875 11.74140625 30.0234375 12.4453125 C30.32121094 13.33863281 30.32121094 13.33863281 30.625 14.25 C30.295 14.91 29.965 15.57 29.625 16.25 C28.305 15.92 26.985 15.59 25.625 15.25 C25.13 12.28 25.13 12.28 24.625 9.25 C23.965 9.25 23.305 9.25 22.625 9.25 C22.13 7.27 22.13 7.27 21.625 5.25 C20.305 5.25 18.985 5.25 17.625 5.25 C17.625 4.59 17.625 3.93 17.625 3.25 C3.765 2.755 3.765 2.755 -10.375 2.25 C-6.7756987 -0.1495342 -4.15759281 -0.05657252 0 0 Z " fill="#5B9CC5" transform="translate(329.375,56.75)"/>
<path d="M0 0 C1.03688965 0.01047363 2.0737793 0.02094727 3.14208984 0.03173828 C4.26357422 0.03818359 5.38505859 0.04462891 6.54052734 0.05126953 C7.71615234 0.06802734 8.89177734 0.08478516 10.10302734 0.10205078 C11.87806641 0.11558594 11.87806641 0.11558594 13.68896484 0.12939453 C16.61885257 0.15302266 19.54834075 0.18596564 22.47802734 0.22705078 C22.47802734 0.55705078 22.47802734 0.88705078 22.47802734 1.22705078 C16.86802734 1.22705078 11.25802734 1.22705078 5.47802734 1.22705078 C4.81802734 3.53705078 4.15802734 5.84705078 3.47802734 8.22705078 C1.14469401 8.22705078 -1.18863932 8.22705078 -3.52197266 8.22705078 C-4.14697266 5.35205078 -4.14697266 5.35205078 -4.52197266 2.22705078 C-2.52197266 0.22705078 -2.52197266 0.22705078 0 0 Z " fill="#056CB9" transform="translate(321.52197265625,58.77294921875)"/>
<path d="M0 0 C1.65 0 3.3 0 5 0 C5 0.66 5 1.32 5 2 C6.65 2 8.3 2 10 2 C8.55213382 4.89573237 6.44500696 5.59287023 3.625 7.125 C2.64789063 7.66382813 1.67078125 8.20265625 0.6640625 8.7578125 C-2 10 -2 10 -5 10 C-5 10.66 -5 11.32 -5 12 C-5.99 12 -6.98 12 -8 12 C-8 11.01 -8 10.02 -8 9 C-6.68 9 -5.36 9 -4 9 C-4 8.34 -4 7.68 -4 7 C-2.68 7 -1.36 7 0 7 C0 6.34 0 5.68 0 5 C-0.99 4.67 -1.98 4.34 -3 4 C-2.34 3.67 -1.68 3.34 -1 3 C-0.67 2.01 -0.34 1.02 0 0 Z " fill="#38AFDE" transform="translate(141,142)"/>
<path d="M0 0 C17.16 0 34.32 0 52 0 C51.67 1.98 51.34 3.96 51 6 C50.01 6.33 49.02 6.66 48 7 C48.66 5.02 49.32 3.04 50 1 C33.5 1 17 1 0 1 C0 0.67 0 0.34 0 0 Z " fill="#7BB9D6" transform="translate(483,78)"/>
<path d="M0 0 C-0.1875 1.875 -0.1875 1.875 -1 4 C-2.66072849 4.68132451 -4.327767 5.34742127 -6 6 C-7.34410262 8.01735205 -7.34410262 8.01735205 -8 10 C-9.32 10 -10.64 10 -12 10 C-12 9.34 -12 8.68 -12 8 C-13.32 8.33 -14.64 8.66 -16 9 C-16 8.34 -16 7.68 -16 7 C-17.32 7.33 -18.64 7.66 -20 8 C-20.33 6.68 -20.66 5.36 -21 4 C-19.3603125 4.680625 -19.3603125 4.680625 -17.6875 5.375 C-13.30708371 6.53475244 -10.99713387 5.30849578 -7.125 3.125 C-6.19945313 2.55007812 -5.27390625 1.97515625 -4.3203125 1.3828125 C-2 0 -2 0 0 0 Z " fill="#3D72BB" transform="translate(122,186)"/>
<path d="M0 0 C0.66 0.66 1.32 1.32 2 2 C1.67 2.66 1.34 3.32 1 4 C1.99 4.66 2.98 5.32 4 6 C3.01 6.99 2.02 7.98 1 9 C1.33 9.66 1.66 10.32 2 11 C-2.97209562 9.23570801 -7.43438061 6.6060834 -12 4 C-12 3.34 -12 2.68 -12 2 C-11.4225 2.165 -10.845 2.33 -10.25 2.5 C-7.73335631 3.14462031 -7.73335631 3.14462031 -4 3 C-1.77256213 1.58022091 -1.77256213 1.58022091 0 0 Z " fill="#145DBC" transform="translate(64,199)"/>
<path d="M0 0 C1.98717494 0.89917418 3.96458885 1.8199462 5.9375 2.75 C7.59072266 3.51570313 7.59072266 3.51570313 9.27734375 4.296875 C12 6 12 6 12.87890625 8.203125 C12.91886719 8.79609375 12.95882812 9.3890625 13 10 C10.04335481 11.4783226 7.25770263 11.06032783 4 11 C4.185625 10.236875 4.37125 9.47375 4.5625 8.6875 C5.22819173 5.91032625 5.22819173 5.91032625 4 3 C1.98491642 2.26676204 1.98491642 2.26676204 0 2 C0 1.34 0 0.68 0 0 Z " fill="#2C6BBC" transform="translate(137,86)"/>
<path d="M0 0 C1.18851563 0.00902344 2.37703125 0.01804688 3.6015625 0.02734375 C4.51679687 0.03894531 5.43203125 0.05054688 6.375 0.0625 C3.9134091 4.9856818 -4.36884122 7.59410181 -9.3125 9.4375 C-10.075625 9.64375 -10.83875 9.85 -11.625 10.0625 C-11.625 9.0725 -11.625 8.0825 -11.625 7.0625 C-9.975 7.0625 -8.325 7.0625 -6.625 7.0625 C-7.285 5.0825 -7.945 3.1025 -8.625 1.0625 C-5.74084117 -0.37957941 -3.20778472 -0.03144887 0 0 Z " fill="#40B1E1" transform="translate(65.625,63.9375)"/>
<path d="M0 0 C1.93904966 0.97764934 3.85490842 2.00215114 5.75 3.0625 C6.73484375 3.61035156 7.7196875 4.15820312 8.734375 4.72265625 C9.48203125 5.14417969 10.2296875 5.56570312 11 6 C8 7 8 7 6.02734375 6.1875 C5.33769531 5.795625 4.64804688 5.40375 3.9375 5 C1.91563601 3.80965456 1.91563601 3.80965456 0 3 C-0.99 3.495 -0.99 3.495 -2 4 C-2 3.01 -2 2.02 -2 1 C-5.72614153 2.11854586 -5.72614153 2.11854586 -8 5 C-9.32 5 -10.64 5 -12 5 C-12 4.34 -12 3.68 -12 3 C-10.75823305 2.29773859 -9.50614401 1.61370891 -8.25 0.9375 C-7.20585938 0.36322266 -7.20585938 0.36322266 -6.140625 -0.22265625 C-3.50389068 -1.18015649 -2.59827741 -1.00828676 0 0 Z " fill="#93D6EB" transform="translate(110,6)"/>
<path d="M0 0 C0.66 0 1.32 0 2 0 C1.52709977 5.18177917 -1.17722033 8.66515852 -4.0625 12.8125 C-4.53494141 13.50537109 -5.00738281 14.19824219 -5.49414062 14.91210938 C-6.6554826 16.6130648 -7.8267678 18.30722395 -9 20 C-9.66 19.67 -10.32 19.34 -11 19 C-9.7580393 15.56072421 -8.44259716 12.74792181 -6 10 C-5.34 10 -4.68 10 -4 10 C-4 8.68 -4 7.36 -4 6 C-3.34 6 -2.68 6 -2 6 C-1.34 4.02 -0.68 2.04 0 0 Z " fill="#4F97C9" transform="translate(557,85)"/>
<path d="M0 0 C-0.66 0.66 -1.32 1.32 -2 2 C-1.34 2.66 -0.68 3.32 0 4 C-0.99 4.99 -1.98 5.98 -3 7 C-3.721875 6.67 -4.44375 6.34 -5.1875 6 C-8.01697427 4.99396471 -10.02895466 4.83022598 -13 5 C-9.01056314 0.61161946 -5.91391458 -0.2688143 0 0 Z " fill="#2F6CBB" transform="translate(135,181)"/>
<path d="M0 0 C2 3 2 3 2 6 C0.5390625 7.2109375 0.5390625 7.2109375 -1.375 8.375 C-4.68271231 10.56685755 -5.73109675 12.19329026 -7 16 C-7.99 16.33 -8.98 16.66 -10 17 C-8.57394582 13.07297642 -6.70550338 9.75380481 -4.4375 6.25 C-3.81746094 5.28578125 -3.19742187 4.3215625 -2.55859375 3.328125 C-1 1 -1 1 0 0 Z " fill="#348BCA" transform="translate(505,125)"/>
<path d="M0 0 C5.96652354 1.57013777 10.82909025 4.75029782 16 8 C14.625 9.5 14.625 9.5 13 11 C12.34 11 11.68 11 11 11 C10.67 9.68 10.34 8.36 10 7 C7.03 6.505 7.03 6.505 4 6 C4 5.34 4 4.68 4 4 C3.01 3.67 2.02 3.34 1 3 C0.67 2.01 0.34 1.02 0 0 Z " fill="#4B82C3" transform="translate(79,178)"/>
<path d="M0 0 C0.66 0.33 1.32 0.66 2 1 C0.35 2.65 -1.3 4.3 -3 6 C-2.67 6.66 -2.34 7.32 -2 8 C-2.99 8 -3.98 8 -5 8 C-4.67 8.99 -4.34 9.98 -4 11 C-4.99 11.495 -4.99 11.495 -6 12 C-6.33 11.01 -6.66 10.02 -7 9 C-8.65 8.67 -10.3 8.34 -12 8 C-9.72254211 5.51017465 -7.37664762 3.89631003 -4.4375 2.25 C-3.65246094 1.80140625 -2.86742188 1.3528125 -2.05859375 0.890625 C-1.37925781 0.59671875 -0.69992188 0.3028125 0 0 Z " fill="#3D74BF" transform="translate(90,79)"/>
<path d="M0 0 C0.33 0 0.66 0 1 0 C1.1954384 2.89549503 1.38161395 5.79108998 1.5625 8.6875 C1.61857422 9.50412109 1.67464844 10.32074219 1.73242188 11.16210938 C1.98341571 15.29514123 2.11127743 18.95824282 1 23 C1.99 23.33 2.98 23.66 4 24 C4 24.66 4 25.32 4 26 C0.7 26 -2.6 26 -6 26 C-5.67 25.34 -5.34 24.68 -5 24 C-3.35 23.67 -1.7 23.34 0 23 C0 15.41 0 7.82 0 0 Z " fill="#76D2F3" transform="translate(177,133)"/>
<path d="M0 0 C1.65 0 3.3 0 5 0 C5.84442152 2.95547533 6.0653653 4.7385388 5.3125 7.75 C4 10 4 10 1.875 10.8125 C1.25625 10.874375 0.6375 10.93625 0 11 C0.66 9.68 1.32 8.36 2 7 C1.01 6.01 0.02 5.02 -1 4 C-0.34 4 0.32 4 1 4 C0.67 2.68 0.34 1.36 0 0 Z " fill="#7FC5E3" transform="translate(206,168)"/>
<path d="M0 0 C1.32 0.33 2.64 0.66 4 1 C2.20963542 1.9765625 0.41927083 2.953125 -1.37109375 3.9296875 C-3.16618315 4.91410024 -3.16618315 4.91410024 -4 7 C-4.99 7 -5.98 7 -7 7 C-7 7.66 -7 8.32 -7 9 C-9.31 9.33 -11.62 9.66 -14 10 C-12.1875 8 -12.1875 8 -10 6 C-9.01 6 -8.02 6 -7 6 C-7 5.34 -7 4.68 -7 4 C-4.35261084 2.5393715 -3.10551666 2 0 2 C0 1.34 0 0.68 0 0 Z " fill="#72C7E2" transform="translate(21,51)"/>
<path d="M0 0 C0.625 1.8125 0.625 1.8125 1 4 C0.01 5.485 0.01 5.485 -1 7 C-1.14245897 9.76655324 -1.18769445 12.42653306 -1.125 15.1875 C-1.11597656 15.93708984 -1.10695313 16.68667969 -1.09765625 17.45898438 C-1.07412578 19.30612654 -1.03825561 21.15310412 -1 23 C-1.66 22.67 -2.32 22.34 -3 22 C-4.57422837 15.6015234 -4.16709597 9.1971341 -2 3 C-1.34 2.01 -0.68 1.02 0 0 Z " fill="#7FB2D6" transform="translate(483,160)"/>
<path d="M0 0 C1.32 0 2.64 0 4 0 C4 0.66 4 1.32 4 2 C5.32 2 6.64 2 8 2 C8 2.66 8 3.32 8 4 C10.97 4.495 10.97 4.495 14 5 C14 5.99 14 6.98 14 8 C10.45265111 7.33694413 7.81990835 5.86707876 4.75 4 C3.85796875 3.46375 2.9659375 2.9275 2.046875 2.375 C1.37140625 1.92125 0.6959375 1.4675 0 1 C0 0.67 0 0.34 0 0 Z " fill="#A2DDED" transform="translate(110,45)"/>
<path d="M0 0 C2.97 0 5.94 0 9 0 C0.25 7 0.25 7 -4 7 C-4 6.01 -4 5.02 -4 4 C-2.35 4 -0.7 4 1 4 C0.67 2.68 0.34 1.36 0 0 Z " fill="#5CBBDF" transform="translate(98,45)"/>
<path d="M0 0 C3.3 0 6.6 0 10 0 C6.4912812 3.09592835 3.50802601 4.74194623 -1 6 C-1 3 -1 3 0 0 Z " fill="#447BBF" transform="translate(154,202)"/>
<path d="M0 0 C2.9375 0.375 2.9375 0.375 6 1 C6.33 1.66 6.66 2.32 7 3 C5.54462432 3.83848804 4.08559627 4.67063934 2.625 5.5 C1.40683594 6.19609375 1.40683594 6.19609375 0.1640625 6.90625 C-2 8 -2 8 -4 8 C-4 7.01 -4 6.02 -4 5 C-2.35 4.67 -0.7 4.34 1 4 C0.67 2.68 0.34 1.36 0 0 Z " fill="#507EC0" transform="translate(168,194)"/>
<path d="M0 0 C1.32 0 2.64 0 4 0 C5 2 5 2 4.00390625 5.0390625 C3.52824219 6.22242188 3.05257813 7.40578125 2.5625 8.625 C2.08941406 9.81351563 1.61632812 11.00203125 1.12890625 12.2265625 C0.75636719 13.14179688 0.38382812 14.05703125 0 15 C-0.33 15 -0.66 15 -1 15 C-1 12.69 -1 10.38 -1 8 C-0.34 8 0.32 8 1 8 C0.67 5.36 0.34 2.72 0 0 Z " fill="#4E99D0" transform="translate(406,151)"/>
<path d="M0 0 C1.32 0 2.64 0 4 0 C4 0.66 4 1.32 4 2 C6.31 1.34 8.62 0.68 11 0 C12.125 3.75 12.125 3.75 11 6 C6.49197399 4.74194623 3.5087188 3.09592835 0 0 Z " fill="#97DDEF" transform="translate(157,71)"/>
<path d="M0 0 C1.32 0.33 2.64 0.66 4 1 C3.67 2.65 3.34 4.3 3 6 C1.35 6.33 -0.3 6.66 -2 7 C-1.34 6.67 -0.68 6.34 0 6 C0 5.34 0 4.68 0 4 C-0.66 3.67 -1.32 3.34 -2 3 C-1.34 2.01 -0.68 1.02 0 0 Z " fill="#0650AE" transform="translate(117,220)"/>
<path d="M0 0 C5.32011893 -0.34886026 5.32011893 -0.34886026 8 0 C10 1.875 10 1.875 11 4 C11 4.66 11 5.32 11 6 C6.49197399 4.74194623 3.5087188 3.09592835 0 0 Z " fill="#4479BB" transform="translate(30,190)"/>
<path d="M0 0 C0.66 0.33 1.32 0.66 2 1 C-0.05233685 3.2477975 -1.00667261 4.0022242 -4 5 C-4.45375 5.515625 -4.9075 6.03125 -5.375 6.5625 C-7 8 -7 8 -9.6875 8.1875 C-10.450625 8.125625 -11.21375 8.06375 -12 8 C-11.67 7.34 -11.34 6.68 -11 6 C-10.01 6 -9.02 6 -8 6 C-8 5.34 -8 4.68 -8 4 C-6.71349294 3.30289269 -5.42059335 2.61757124 -4.125 1.9375 C-3.40570313 1.55464844 -2.68640625 1.17179687 -1.9453125 0.77734375 C-1.30335937 0.52082031 -0.66140625 0.26429687 0 0 Z " fill="#6DC3E3" transform="translate(77,21)"/>
<path d="M0 0 C4.19360449 0.67097672 7.40334352 2.8558394 11 5 C11 5.66 11 6.32 11 7 C6.96678237 5.78065514 3.45730521 4.44045073 0 2 C0 1.34 0 0.68 0 0 Z " fill="#4376B9" transform="translate(52,201)"/>
<path d="M0 0 C1.258125 0.12375 2.51625 0.2475 3.8125 0.375 C4.87404297 0.47941406 4.87404297 0.47941406 5.95703125 0.5859375 C8 1 8 1 11 3 C11 3.99 11 4.98 11 6 C6.49197399 4.74194623 3.5087188 3.09592835 0 0 Z " fill="#4A80BE" transform="translate(19,184)"/>
<path d="M0 0 C0 0.99 0 1.98 0 3 C2.475 3.99 2.475 3.99 5 5 C5 5.99 5 6.98 5 8 C1.9168649 6.80100302 -1.06279492 5.52299523 -4 4 C-4 3.34 -4 2.68 -4 2 C-2.68 1.34 -1.36 0.68 0 0 Z " fill="#99DBF2" transform="translate(98,157)"/>
<path d="M0 0 C0.66 0 1.32 0 2 0 C2 0.66 2 1.32 2 2 C2.5775 2.12375 3.155 2.2475 3.75 2.375 C6.02335767 3.00648824 7.9253529 3.88858191 10 5 C9.34 5.66 8.68 6.32 8 7 C5.36 6.01 2.72 5.02 0 4 C0 2.68 0 1.36 0 0 Z " fill="#95DCEF" transform="translate(122,13)"/>
<path d="M0 0 C-0.33 1.32 -0.66 2.64 -1 4 C-4.28696233 4.79953138 -5.71023192 5.09658936 -9 4 C-2.25 0 -2.25 0 0 0 Z " fill="#5283C0" transform="translate(122,186)"/>
<path d="M0 0 C0.66 0.99 1.32 1.98 2 3 C2.66 3.66 3.32 4.32 4 5 C4.33 5.99 4.66 6.98 5 8 C4.01 8.33 3.02 8.66 2 9 C2 8.34 2 7.68 2 7 C1.01 7 0.02 7 -1 7 C-0.67 4.69 -0.34 2.38 0 0 Z " fill="#519ACF" transform="translate(384,140)"/>
<path d="M0 0 C0.66 0 1.32 0 2 0 C2 0.66 2 1.32 2 2 C3.423125 2.433125 3.423125 2.433125 4.875 2.875 C8 4 8 4 10 6 C6.0507432 5.44894091 2.65079826 4.61064629 -1 3 C-0.67 2.01 -0.34 1.02 0 0 Z " fill="#77CBF6" transform="translate(75,101)"/>
<path d="M0 0 C1.32 0.33 2.64 0.66 4 1 C3.67 2.65 3.34 4.3 3 6 C2.01 6 1.02 6 0 6 C0 5.01 0 4.02 0 3 C-0.66 2.67 -1.32 2.34 -2 2 C-1.34 2 -0.68 2 0 2 C0 1.34 0 0.68 0 0 Z " fill="#2164B5" transform="translate(174,190)"/>
<path d="M0 0 C0.66 0.33 1.32 0.66 2 1 C1.71758359 2.46015291 1.42373386 3.91809793 1.125 5.375 C0.96257812 6.18710938 0.80015625 6.99921875 0.6328125 7.8359375 C0 10 0 10 -2 12 C-1.85904936 10.3745692 -1.71207913 8.74965949 -1.5625 7.125 C-1.48128906 6.22007812 -1.40007812 5.31515625 -1.31640625 4.3828125 C-1 2 -1 2 0 0 Z " fill="#5A9CD1" transform="translate(401,171)"/>
<path d="M0 0 C0.99 0 1.98 0 3 0 C3 0.99 3 1.98 3 3 C-0.64793184 4.27253436 -4.1936543 5.32829194 -8 6 C-6.72485508 3.44971017 -5.59658703 3.06918289 -3 2 C-2.01 2 -1.02 2 0 2 C0 1.34 0 0.68 0 0 Z " fill="#76C6E3" transform="translate(47,37)"/>
<path d="M0 0 C-1.52941351 3.05882701 -3.94219546 3.68951234 -7 5 C-7.66 4.67 -8.32 4.34 -9 4 C-8.67 3.01 -8.34 2.02 -8 1 C-5.07175348 0.02391783 -3.04386724 -0.08226668 0 0 Z " fill="#5989C6" transform="translate(193,186)"/>
<path d="M0 0 C0.33 0 0.66 0 1 0 C1 1.98 1 3.96 1 6 C-0.65 6.66 -2.3 7.32 -4 8 C-3.34 6.02 -2.68 4.04 -2 2 C-1.34 2 -0.68 2 0 2 C0 1.34 0 0.68 0 0 Z " fill="#4B97C7" transform="translate(491,147)"/>
<path d="M0 0 C0.99 0.33 1.98 0.66 3 1 C1.92598892 3.91517292 1.22189824 5.77810176 -1 8 C-1.33 6.02 -1.66 4.04 -2 2 C-1.34 2 -0.68 2 0 2 C0 1.34 0 0.68 0 0 Z " fill="#3C90CF" transform="translate(541,109)"/>
<path d="M0 0 C0 0.99 0 1.98 0 3 C-3.3171411 4.4216319 -6.44219804 5.39009109 -10 6 C-9.67 5.34 -9.34 4.68 -9 4 C-8.01 4 -7.02 4 -6 4 C-6 3.34 -6 2.68 -6 2 C-2.25 0 -2.25 0 0 0 Z " fill="#68C1E0" transform="translate(97,11)"/>
<path d="M0 0 C0.8353125 0.556875 0.8353125 0.556875 1.6875 1.125 C1.6875 1.785 1.6875 2.445 1.6875 3.125 C-1.6125 3.125 -4.9125 3.125 -8.3125 3.125 C-7.3125 1.125 -7.3125 1.125 -5 -0.125 C-2.3125 -0.875 -2.3125 -0.875 0 0 Z " fill="#6CADDB" transform="translate(179.3125,155.875)"/>
<path d="M0 0 C1.65 0 3.3 0 5 0 C3.6875 1.5 3.6875 1.5 2 3 C1.01 3 0.02 3 -1 3 C-1 3.66 -1 4.32 -1 5 C-1.99 5 -2.98 5 -4 5 C-4 4.01 -4 3.02 -4 2 C-2.68 2 -1.36 2 0 2 C0 1.34 0 0.68 0 0 Z " fill="#68C0E4" transform="translate(137,149)"/>
<path d="M0 0 C1.36125 0.12375 1.36125 0.12375 2.75 0.25 C0.452779 1.99271938 -1.84866729 3.64911152 -4.25 5.25 C-5.24 4.92 -6.23 4.59 -7.25 4.25 C-4.83923194 1.28290085 -3.90322061 0.30024774 0 0 Z " fill="#6794CB" transform="translate(134.25,216.75)"/>
<path d="M0 0 C0.99 0.33 1.98 0.66 3 1 C2.46930939 4.82097239 1.50298434 7.06171403 -1 10 C-1 8.35 -1 6.7 -1 5 C-0.34 5 0.32 5 1 5 C0.67 3.35 0.34 1.7 0 0 Z " fill="#3F8EC4" transform="translate(523,136)"/>
<path d="M0 0 C0 3.25811062 -0.5522078 5.10441559 -2 8 C-2.99 8.33 -3.98 8.66 -5 9 C-3.7508258 5.54074837 -2.32472205 2.85306797 0 0 Z " fill="#5EA3D0" transform="translate(500,133)"/>
<path d="M0 0 C1.5625 1.1875 1.5625 1.1875 3 3 C2.6875 5.6875 2.6875 5.6875 2 8 C1.01 7.67 0.02 7.34 -1 7 C-2 4 -2 4 -1.0625 1.8125 C-0.5365625 0.9153125 -0.5365625 0.9153125 0 0 Z " fill="#2885CA" transform="translate(423,105)"/>
<path d="M0 0 C0.66 0 1.32 0 2 0 C2.33 1.32 2.66 2.64 3 4 C1.68 4.99 0.36 5.98 -1 7 C-0.67 4.69 -0.34 2.38 0 0 Z " fill="#3385C1" transform="translate(413,79)"/>
<path d="M0 0 C1.32 0.33 2.64 0.66 4 1 C-2.75 5 -2.75 5 -5 5 C-5 4.01 -5 3.02 -5 2 C-3.35 2 -1.7 2 0 2 C0 1.34 0 0.68 0 0 Z " fill="#79C4E4" transform="translate(59,69)"/>
<path d="M0 0 C2.31 0 4.62 0 7 0 C7.33 1.32 7.66 2.64 8 4 C4.64404172 3.40072174 2.62198774 2.15377564 0 0 Z " fill="#9ADAED" transform="translate(124,53)"/>
<path d="M0 0 C0.03122943 1.96756452 0.03122943 1.96756452 1 4 C3.99615946 5.3045656 3.99615946 5.3045656 7 6 C7 6.33 7 6.66 7 7 C5.02 7 3.04 7 1 7 C0.67 4.69 0.34 2.38 0 0 Z " fill="#498EC7" transform="translate(38,152)"/>
<path d="M0 0 C0.99 0.33 1.98 0.66 3 1 C1.25 5.875 1.25 5.875 -1 7 C-1.33 5.68 -1.66 4.36 -2 3 C-1.34 2.67 -0.68 2.34 0 2 C0 1.34 0 0.68 0 0 Z " fill="#4396CF" transform="translate(535,119)"/>
<path d="M0 0 C0.99 0.33 1.98 0.66 3 1 C2.67 2.32 2.34 3.64 2 5 C0.35 5.33 -1.3 5.66 -3 6 C-3 5.34 -3 4.68 -3 4 C-1.68 3.67 -0.36 3.34 1 3 C0.67 2.01 0.34 1.02 0 0 Z " fill="#3596D3" transform="translate(149,93)"/>
<path d="M0 0 C0.66 0 1.32 0 2 0 C2 1.32 2 2.64 2 4 C2.66 4 3.32 4 4 4 C3.67 4.66 3.34 5.32 3 6 C2.01 5.67 1.02 5.34 0 5 C0 4.34 0 3.68 0 3 C-1.32 2.67 -2.64 2.34 -4 2 C-2.68 2 -1.36 2 0 2 C0 1.34 0 0.68 0 0 Z " fill="#054EB7" transform="translate(70,92)"/>
<path d="" fill="#FFFFFF" transform="translate(0,0)"/>
<path d="" fill="#FFFFCC" transform="translate(0,0)"/>
</svg>
